<?xml version="1.0" standalone="no"?>
<!DOCTYPE svg PUBLIC "-//W3C//DTD SVG 1.1//EN" "http://www.w3.org/Graphics/SVG/1.1/DTD/svg11.dtd">
<svg t="1681089790802" class="icon" viewBox="0 0 1024 1024" version="1.1" xmlns="http://www.w3.org/2000/svg" p-id="5388" xmlns:xlink="http://www.w3.org/1999/xlink" width="64" height="64">
	<path d="M492.556962 985.113924C220.522937 985.113924 0 764.590987 0 492.556962S220.522937 0 492.556962 0s492.556962 220.522937 492.556962 492.556962-220.522937 492.556962-492.556962 492.556962z" fill="#22ad72" p-id="5389">
	</path>
	<path d="M492.556962 285.371949V207.392405h12.962025v77.979544a97.21519 97.21519 0 0 1 90.734178 97.007798H401.822785a97.21519 97.21519 0 0 1 90.734177-97.007798zM751.797468 440.708861h51.848102a25.924051 25.924051 0 0 1 25.92405 25.92405v103.696203a25.924051 25.924051 0 0 1-25.92405 25.924051h-51.848102V440.708861z m-505.518987 0v155.544304h-51.848101a25.924051 25.924051 0 0 1-25.924051-25.924051v-103.696203a25.924051 25.924051 0 0 1 25.924051-25.92405h51.848101z m220.35443 246.278481h64.810127v103.696202h-64.810127v-103.696202z" fill="#22ad72" p-id="5390">
	</path>
	<path d="M311.088608 324.050633h375.898734a103.696203 103.696203 0 0 1 103.696202 103.696202v181.468355a103.696203 103.696203 0 0 1-103.696202 103.696202H311.088608a103.696203 103.696203 0 0 1-103.696203-103.696202V427.746835a103.696203 103.696203 0 0 1 103.696203-103.696202z m97.215189 90.734177a110.177215 110.177215 0 1 0 0 220.354431h181.468355a110.177215 110.177215 0 1 0 0-220.354431h-181.468355z m90.734178 622.177215C416.716152 1036.962025 349.974684 970.220557 349.974684 887.898734S416.716152 738.835443 499.037975 738.835443 648.101266 805.576911 648.101266 887.898734 581.359797 1036.962025 499.037975 1036.962025z m0-803.645569a32.405063 32.405063 0 1 1 0-64.810127 32.405063 32.405063 0 0 1 0 64.810127z m-103.696203 324.050633a32.405063 32.405063 0 1 1 0-64.810127 32.405063 32.405063 0 0 1 0 64.810127z m194.43038 0a32.405063 32.405063 0 1 1 0-64.810127 32.405063 32.405063 0 0 1 0 64.810127z" fill="#FFFFFF" p-id="5391">
	</path>
	<path d="M408.303797 395.341772h181.468355c71.589266 0 129.620253 58.030987 129.620253 129.620253s-58.030987 129.620253-129.620253 129.620253h-181.468355c-71.589266 0-129.620253-58.030987-129.620253-129.620253s58.030987-129.620253 129.620253-129.620253z m0 19.443038a110.177215 110.177215 0 1 0 0 220.354431h181.468355a110.177215 110.177215 0 1 0 0-220.354431h-181.468355z" fill="#22ad72" p-id="5392">
	</path>
</svg>
